ffmpeg version 3.4.8-0ubuntu0.2 Copyright (c) 2000-2020 the FFmpeg developers
  built with gcc 7 (Ubuntu 7.5.0-3ubuntu1~18.04)
  configuration: --prefix=/usr --extra-version=0ubuntu0.2 --toolchain=hardened --libdir=/usr/lib/x86_64-linux-gnu --incdir=/usr/include/x86_64-linux-gnu --enable-gpl --disable-stripping --enable-avresample --enable-avisynth --enable-gnutls --enable-ladspa --enable-libass --enable-libbluray --enable-libbs2b --enable-libcaca --enable-libcdio --enable-libflite --enable-libfontconfig --enable-libfreetype --enable-libfribidi --enable-libgme --enable-libgsm --enable-libmp3lame --enable-libmysofa --enable-libopenjpeg --enable-libopenmpt --enable-libopus --enable-libpulse --enable-librubberband --enable-librsvg --enable-libshine --enable-libsnappy --enable-libsoxr --enable-libspeex --enable-libssh --enable-libtheora --enable-libtwolame --enable-libvorbis --enable-libvpx --enable-libwavpack --enable-libwebp --enable-libx265 --enable-libxml2 --enable-libxvid --enable-libzmq --enable-libzvbi --enable-omx --enable-openal --enable-opengl --enable-sdl2 --enable-libdc1394 --enable-libdrm --enable-libiec61883 --enable-chromaprint --enable-frei0r --enable-libopencv --enable-libx264 --enable-shared
  libavutil      55. 78.100 / 55. 78.100
  libavcodec     57.107.100 / 57.107.100
  libavformat    57. 83.100 / 57. 83.100
  libavdevice    57. 10.100 / 57. 10.100
  libavfilter     6.107.100 /  6.107.100
  libavresample   3.  7.  0 /  3.  7.  0
  libswscale      4.  8.100 /  4.  8.100
  libswresample   2.  9.100 /  2.  9.100
  libpostproc    54.  7.100 / 54.  7.100
[rawvideo @ 0x557ce9414a20] Estimating duration from bitrate, this may be inaccurate
Input #0, rawvideo, from '../../SVC-Encoder-20220109T061506Z-001/SVC-Encoder/Dataset/RollerCoaster/ERP_8x8/tile_yuv/Tile_30_480x240.yuv':
  Duration: 00:00:10.00, start: 0.000000, bitrate: 41472 kb/s
    Stream #0:0: Video: rawvideo (I420 / 0x30323449), yuv420p, 480x240, 41472 kb/s, 30 tbr, 30 tbn, 30 tbc
Stream mapping:
  Stream #0:0 -> #0:0 (rawvideo (native) -> h264 (libx264))
Press [q] to stop, [?] for help
[libx264 @ 0x557ce9421c60] using cpu capabilities: MMX2 SSE2Fast LZCNT SSSE3 SSE4.2 AVX
[libx264 @ 0x557ce9421c60] profile High, level 2.1
Output #0, rawvideo, to 'RollerCoaster_Tile_30_480x240_x264_QP_32.h264':
  Metadata:
    encoder         : Lavf57.83.100
    Stream #0:0: Video: h264 (libx264), yuv420p, 480x240, q=-1--1, 30 fps, 30 tbn, 30 tbc
    Metadata:
      encoder         : Lavc57.107.100 libx264
    Side data:
      cpb: bitrate max/min/avg: 0/0/0 buffer size: 0 vbv_delay: -1
frame=  175 fps=0.0 q=38.0 PSNR=Y:nan U:nan V:nan *:nan size=      59kB time=00:00:04.40 bitrate= 110.4kbits/s speed=8.73x    frame=  300 fps=0.0 q=38.0 LPSNR=Y:inf U:inf V:inf *:inf size=     120kB time=00:00:09.93 bitrate=  98.7kbits/s speed=10.6x    
video:120kB audio:0kB subtitle:0kB other streams:0kB global headers:0kB muxing overhead: 0.000000%
[libx264 @ 0x557ce9421c60] frame I:2     Avg QP:30.64  size:  8020  PSNR Mean Y:36.41 U:44.78 V:48.33 Avg:37.95 Global:37.70
[libx264 @ 0x557ce9421c60] frame P:80    Avg QP:31.99  size:   957  PSNR Mean Y:34.87 U:45.23 V:47.76 Avg:36.48 Global:36.46
[libx264 @ 0x557ce9421c60] frame B:218   Avg QP:37.60  size:   137  PSNR Mean Y:34.81 U:45.34 V:47.82 Avg:36.42 Global:36.40
[libx264 @ 0x557ce9421c60] consecutive B-frames:  1.7%  4.0%  1.0% 93.3%
[libx264 @ 0x557ce9421c60] mb I  I16..4: 13.7% 81.4%  4.9%
[libx264 @ 0x557ce9421c60] mb P  I16..4:  0.4%  0.7%  0.2%  P16..4: 41.1%  9.0%  1.8%  0.0%  0.0%    skip:46.9%
[libx264 @ 0x557ce9421c60] mb B  I16..4:  0.0%  0.0%  0.0%  B16..8: 20.5%  0.7%  0.1%  direct: 0.1%  skip:78.7%  L0:31.0% L1:68.6% BI: 0.4%
[libx264 @ 0x557ce9421c60] 8x8 transform intra:72.9% inter:71.2%
[libx264 @ 0x557ce9421c60] coded y,uvDC,uvAC intra: 72.8% 46.2% 3.6% inter: 3.8% 1.2% 0.0%
[libx264 @ 0x557ce9421c60] i16 v,h,dc,p: 14% 43% 25% 18%
[libx264 @ 0x557ce9421c60] i8 v,h,dc,ddl,ddr,vr,hd,vl,hu:  6% 16% 22%  9%  7%  7%  8%  6% 19%
[libx264 @ 0x557ce9421c60] i4 v,h,dc,ddl,ddr,vr,hd,vl,hu:  9% 14% 35%  8%  7%  8%  5%  4% 10%
[libx264 @ 0x557ce9421c60] i8c dc,h,v,p: 64% 22%  9%  5%
[libx264 @ 0x557ce9421c60] Weighted P-Frames: Y:3.8% UV:0.0%
[libx264 @ 0x557ce9421c60] ref P L0: 63.9% 24.0%  9.5%  2.7%  0.0%
[libx264 @ 0x557ce9421c60] ref B L0: 90.2%  8.8%  1.0%
[libx264 @ 0x557ce9421c60] ref B L1: 91.1%  8.9%
[libx264 @ 0x557ce9421c60] PSNR Mean Y:34.836 U:45.306 V:47.811 Avg:36.447 Global:36.426 kb/s:98.02
